<?xml version="1.0" encoding="utf-8"?>
<!-- Generator: Adobe Illustrator 26.0.1, SVG Export Plug-In . SVG Version: 6.00 Build 0)  -->
<svg version="1.1" id="Layer_1" xmlns="http://www.w3.org/2000/svg" xmlns:xlink="http://www.w3.org/1999/xlink" x="0px" y="0px"
	 viewBox="800 800 1400 1400" style="enable-background:new 0 0 3000 3000;" xml:space="preserve">
<style type="text/css">
	.st0{fill:currentColor;}
</style>
<g>
	<path class="st0" d="M1975.88,1809.26v-615.73c20.16-5.32,44.45-15.72,65-35.97c18.27-18.01,40.05-50.85,40.05-105.06
		c0-47.85-13.87-85.02-41.21-110.49c-33.84-31.51-75.33-31.91-85.19-31.52l-914.81,8.65c-1.53,0.01-3.04,0.12-4.52,0.3
		c-32.63-0.42-63.55,8.64-87.56,25.77c-30.5,21.77-48.46,54.51-51.93,94.7c-7.3,84.48-4.83,851.02-4.72,883.61c0,1,0.04,2,0.12,2.99
		c0.73,9.31,8.67,92.26,61.83,136.4c21.14,17.55,46.71,26.63,74.62,26.63c3.9,0,7.85-0.19,11.84-0.54h923.87
		c0.95,0,1.91-0.03,2.86-0.1c3.59-0.26,36.02-3.03,69.13-20.77c47.85-25.64,74.21-70.15,74.21-125.33
		c0-34.66-12.36-65.2-35.76-88.33C2045.03,1826.11,2005.48,1814.22,1975.88,1809.26z M1956.05,990.49c0.15,0,0.28,0,0.4,0
		c0.81,0,0.89,0.03,1.7-0.06c2.45,0.01,17.14,0.51,27.54,10.59c12.6,12.21,15.25,34.73,15.25,51.48c0,37.37-16.34,50.5-28.63,57.12
		c-17.17,9.25-36.03,9.46-36.21,9.46l0.37,0l0,0.01c-0.19,0-0.38-0.01-0.58-0.01h-772.53c7.65-20.34,13.19-46.28,13.19-78.76
		c0-14.88-2.95-29.15-8.6-42.38L1956.05,990.49z M975.42,1046.81c3.88-44.91,44.26-48.03,61.43-47.29
		c29.34,1.27,59.7,16.87,59.7,40.8c0,63.6-28.67,80.86-31.4,82.36c-16.85,7.67-26.29,25.98-22.64,44.25
		c3.74,18.7,20.16,32.16,39.22,32.16h814.15v606.67h-790.93c-16.63,0-31.52,10.29-37.41,25.84c-5.89,15.55-1.54,33.12,10.92,44.13
		c20.01,17.68,41.7,45.57,31.36,78.01c-9.19,28.84-40.65,51.67-76.51,55.51c-12.08,1.29-21.06-1.1-29.15-7.78
		c-22.5-18.56-31.51-63.65-33.17-79.97C970.08,1646.14,969.83,1111.44,975.42,1046.81z M1999.2,1996.68
		c-16.16,9.15-33.44,11.78-37.94,12.33h-789.41c5.93-9.74,10.73-20.12,14.2-30.99c9.82-30.8,8.37-62.37-3.5-92.27h753.34
		c0.15,0,0.3-0.01,0.46-0.01l0,0.01l-0.14,0c0.09,0,0.18,0,0.27,0c14.65,0,59.99,4.68,81.14,25.75
		c8.11,8.07,11.88,18.03,11.88,31.32C2029.48,1967.87,2019.86,1984.99,1999.2,1996.68z"/>
	<path class="st0" d="M1107.58,1593.06c19.8,35.43,49.1,59.59,87.53,72.58c20.23,6.84,41.1,9.43,62.43,8.41
		c37.41-1.79,71.54-13.59,102.96-33.71c20.24-12.96,38.75-28.13,56.17-44.59c14.07-13.3,27.73-27.04,41.55-40.6
		c3.57-3.5,3.63-3.54,7.16,0.04c17.3,17.5,34.6,35.01,53.02,51.34c15.83,14.04,32.4,27.11,50.42,38.27
		c19.82,12.26,41.02,21.11,63.92,25.68c16.88,3.37,33.89,4.39,51.04,2.57c42.07-4.45,77.88-21.87,107.28-52.22
		c21.02-21.7,35.01-47.4,42.16-76.75c5.11-20.96,6.1-42.17,3.21-63.55c-3.15-23.25-9.85-45.4-21.06-66.06
		c-16.78-30.92-41.76-52.7-74.27-65.96c-16.12-6.58-32.88-10.7-50.17-12.67c-3.56-0.41-7.15-0.55-10.72-0.83
		c-0.6-0.05-1.19-0.18-1.78-0.27c-4.53,0-9.05,0-13.58,0c-2.13,0.19-4.26,0.41-6.4,0.57c-23.33,1.71-45.37,8.16-66.47,18.05
		c-19.62,9.19-37.61,20.99-54.69,34.25c-18.16,14.11-34.95,29.73-51.27,45.88c-7.06,6.98-14.03,14.05-21.05,21.08
		c-0.47,0.47-0.93,0.95-1.42,1.39c-1.5,1.36-2.15,1.35-3.66-0.06c-0.76-0.72-1.49-1.48-2.22-2.22
		c-17.53-17.74-35.08-35.45-53.81-51.95c-15.13-13.33-30.96-25.72-48.07-36.45c-19.01-11.93-39.28-20.87-61.26-25.73
		c-18.18-4.02-36.55-5.22-55.09-3.22c-38.04,4.11-71.22,19.09-99.32,44.96c-26.81,24.68-44.03,54.96-51.08,90.78
		c-1.58,8.03-2.08,16.27-3.08,24.41c-0.09,0.7-0.18,1.4-0.28,2.09c0,4.19,0,8.38,0,12.58c0.21,2.68,0.43,5.36,0.62,8.04
		C1088.21,1545.3,1094.76,1570.12,1107.58,1593.06z M1509.24,1502.91c16.39-16.85,32.75-33.72,50.55-49.1
		c16.07-13.89,33.03-26.49,52.21-35.85c19.45-9.49,39.89-14.69,61.65-13.7c25.41,1.17,47.47,10.24,65.13,28.84
		c12.53,13.2,20.14,29.06,24.05,46.74c2.76,12.47,3.77,25.06,1.97,37.77c-2.66,18.75-9.7,35.66-21.68,50.37
		c-16.36,20.08-37.41,32.15-63.02,36.2c-2.45,0.39-4.92,0.69-7.39,0.9c-2.8,0.23-5.62,0.3-8.43,0.44
		c-16.25-0.14-31.65-3.94-46.42-10.57c-17.05-7.65-32.16-18.28-46.49-30.11c-15.76-13.02-30.15-27.5-44.76-41.75
		c-5.73-5.58-11.51-11.11-17.26-16.67C1507.74,1504.85,1507.72,1504.48,1509.24,1502.91z M1157.94,1503.47
		c0.85-47.89,34.4-88.01,80.17-97.27c22.39-4.54,43.99-1.53,64.93,7.14c16.92,7,31.88,17.18,46.04,28.63
		c14.48,11.71,27.75,24.73,41.06,37.71c7.98,7.78,15.99,15.52,24,23.27c1.75,1.69,1.77,1.86,0.13,3.55
		c-14.17,14.54-28.28,29.14-43.38,42.74c-15.93,14.36-32.63,27.68-51.5,38.07c-14.2,7.82-29.1,13.73-45.17,16.28
		c-6.41,1.02-12.92,1.41-19.38,2.09c-20.65-0.52-39.71-5.72-56.67-17.71c-12.23-8.65-21.57-19.81-28.27-33.14
		C1161.78,1538.69,1157.62,1521.47,1157.94,1503.47z"/>
</g>
</svg>
